<svg xmlns="http://www.w3.org/2000/svg" viewBox="0 0 64 64" width="64" height="64" aria-label="CentryAI">
  <defs>
    <linearGradient id="g-dish" x1="0" y1="0" x2="1" y2="1">
      <stop offset="0" stop-color="#6c8fe3"></stop>
      <stop offset="1" stop-color="#1a1f4d"></stop>
    </linearGradient>
    <linearGradient id="g-arc" x1="0" y1="1" x2="1" y2="0">
      <stop offset="0" stop-color="#4b7af5"></stop>
      <stop offset="1" stop-color="#1a1f4d"></stop>
    </linearGradient>
  </defs>
  
  <path d="M 10 32 A 22 22 0 1 1 32 54" fill="none" stroke="url(#g-arc)" stroke-width="3.5" stroke-linecap="round"></path>
  
  <path d="M 30 50 L 40 56 L 38 46 Z" fill="#4b7af5"></path>
  
  <circle cx="46" cy="16" r="2.5" fill="#4b7af5"></circle>
  <circle cx="50" cy="22" r="1.6" fill="#6c8fe3"></circle>
  <circle cx="42" cy="10" r="1.6" fill="#6c8fe3"></circle>
  
  <path d="M 18 18 L 38 10 L 32 30 Z" fill="url(#g-dish)"></path>
  <line x1="28" y1="24" x2="26" y2="36" stroke="#1a1f4d" stroke-width="2" stroke-linecap="round"></line>
  
  <path d="M 16 32 L 26 32 L 26 48 L 24 46 L 22 48 L 20 46 L 18 48 L 16 46 Z" fill="#f0f3fa" stroke="#1a1f4d" stroke-width="1"></path>
  <text x="21" y="44" font-family="DM Sans, sans-serif" font-weight="700" font-size="11" fill="#1a1f4d" text-anchor="middle">$</text>
</svg>