<?xml version="1.0" encoding="UTF-8" standalone="no"?>
<!DOCTYPE svg PUBLIC "-//W3C//DTD SVG 1.1//EN" "http://www.w3.org/Graphics/SVG/1.1/DTD/svg11.dtd">
<svg width="100%" height="100%" viewBox="0 0 732 284" version="1.1" xmlns="http://www.w3.org/2000/svg" xmlns:xlink="http://www.w3.org/1999/xlink" xml:space="preserve" xmlns:serif="http://www.serif.com/" style="fill-rule:evenodd;clip-rule:evenodd;stroke-linejoin:round;stroke-miterlimit:2;">
    <g transform="matrix(1,0,0,1,-219.67769,-814.587389)">
        <g transform="matrix(1,0,0,1,-0.610229,444.319672)">
            <g transform="matrix(1.200154,0,0,1.200154,-88.376691,26.610581)">
                <path d="M436.804,505.242C418.882,516.21 397.815,522.534 375.283,522.534C310.104,522.534 257.187,469.618 257.187,404.439C257.187,339.261 310.104,286.344 375.283,286.344C397.815,286.344 418.882,292.668 436.804,303.637L431.648,312.019C415.226,301.976 395.925,296.185 375.283,296.185C315.536,296.185 267.029,344.692 267.029,404.439C267.029,464.186 315.536,512.693 375.283,512.693C395.925,512.693 415.226,506.903 431.648,496.859L436.804,505.242Z" style="fill:rgb(59,130,246);"/>
            </g>
            <g transform="matrix(0.900116,0,0,0.900116,24.222533,147.957936)">
                <path d="M436.686,505.314C418.79,516.238 397.766,522.534 375.283,522.534C310.104,522.534 257.187,469.618 257.187,404.439C257.187,339.261 310.104,286.344 375.283,286.344C397.766,286.344 418.79,292.641 436.686,303.565L429.811,314.741C413.914,305.05 395.245,299.466 375.283,299.466C317.346,299.466 270.309,346.503 270.309,404.439C270.309,462.376 317.346,509.413 375.283,509.413C395.245,509.413 413.914,503.828 429.811,494.137L436.686,505.314Z" style="fill:rgb(59,130,246);"/>
            </g>
            <g transform="matrix(0.600077,0,0,0.600077,136.821756,269.30529)">
                <path d="M436.45,505.457C418.605,516.293 397.667,522.534 375.283,522.534C310.104,522.534 257.187,469.618 257.187,404.439C257.187,339.261 310.104,286.344 375.283,286.344C397.667,286.344 418.605,292.585 436.45,303.421L426.137,320.186C411.292,311.2 393.887,306.027 375.283,306.027C320.967,306.027 276.87,350.124 276.87,404.439C276.87,458.755 320.967,502.852 375.283,502.852C393.887,502.852 411.292,497.678 426.137,488.693L436.45,505.457Z" style="fill:rgb(59,130,246);"/>
            </g>
            <g transform="matrix(0,-2.239882,0.784076,0,-41.187298,1557.763431)">
                <path d="M412.872,608.414L466.883,513.5L520.894,608.414C509.771,660.334 489.734,695.009 466.883,695.009C444.033,695.009 423.995,660.334 412.872,608.414Z" style="fill:url(#_Linear1);"/>
            </g>
        </g>
        <g transform="matrix(0.541071,0,0,0.610021,436.888882,470.088535)">
            <g transform="matrix(213.020054,0,0,213.020054,116.057867,849.79548)">
                <path d="M0.379,0.015C0.307,0.015 0.245,-0.001 0.193,-0.032C0.141,-0.063 0.1,-0.107 0.072,-0.164C0.044,-0.22 0.03,-0.285 0.03,-0.36C0.03,-0.435 0.044,-0.5 0.072,-0.556C0.1,-0.613 0.141,-0.657 0.193,-0.688C0.245,-0.719 0.307,-0.735 0.379,-0.735C0.462,-0.735 0.531,-0.715 0.587,-0.673C0.643,-0.632 0.683,-0.577 0.706,-0.507L0.569,-0.469C0.556,-0.513 0.533,-0.547 0.502,-0.571C0.47,-0.595 0.429,-0.607 0.379,-0.607C0.333,-0.607 0.295,-0.597 0.265,-0.577C0.234,-0.556 0.211,-0.527 0.196,-0.49C0.181,-0.454 0.173,-0.41 0.173,-0.36C0.173,-0.31 0.181,-0.267 0.196,-0.23C0.211,-0.193 0.234,-0.164 0.265,-0.144C0.295,-0.123 0.333,-0.113 0.379,-0.113C0.429,-0.113 0.47,-0.125 0.502,-0.149C0.533,-0.174 0.556,-0.208 0.569,-0.251L0.706,-0.213C0.683,-0.143 0.643,-0.088 0.587,-0.046C0.531,-0.006 0.462,0.015 0.379,0.015Z" style="fill:rgb(232,234,240);fill-rule:nonzero;"/>
            </g>
            <g transform="matrix(213.020054,0,0,213.020054,266.450025,849.79548)">
                <path d="M0.321,0.015C0.266,0.015 0.217,0.003 0.175,-0.021C0.133,-0.045 0.1,-0.077 0.076,-0.119C0.052,-0.161 0.04,-0.209 0.04,-0.263C0.04,-0.322 0.052,-0.373 0.075,-0.417C0.098,-0.461 0.131,-0.495 0.172,-0.519C0.213,-0.543 0.26,-0.555 0.313,-0.555C0.37,-0.555 0.418,-0.542 0.458,-0.515C0.497,-0.488 0.526,-0.451 0.545,-0.403C0.565,-0.354 0.571,-0.297 0.566,-0.232L0.431,-0.232L0.431,-0.282C0.431,-0.337 0.422,-0.377 0.405,-0.401C0.387,-0.425 0.359,-0.437 0.319,-0.437C0.273,-0.437 0.239,-0.423 0.217,-0.395C0.195,-0.367 0.184,-0.325 0.184,-0.27C0.184,-0.22 0.195,-0.181 0.217,-0.153C0.239,-0.126 0.271,-0.112 0.313,-0.112C0.34,-0.112 0.362,-0.118 0.382,-0.13C0.401,-0.141 0.415,-0.158 0.425,-0.18L0.561,-0.141C0.541,-0.092 0.509,-0.053 0.465,-0.026C0.421,0.001 0.373,0.015 0.321,0.015ZM0.142,-0.232L0.142,-0.333L0.5,-0.333L0.5,-0.232L0.142,-0.232Z" style="fill:rgb(232,234,240);fill-rule:nonzero;"/>
            </g>
            <g transform="matrix(213.020054,0,0,213.020054,384.250115,849.79548)">
                <path d="M0.438,-0L0.438,-0.255C0.438,-0.267 0.437,-0.283 0.436,-0.302C0.435,-0.321 0.431,-0.341 0.423,-0.36C0.417,-0.379 0.405,-0.396 0.389,-0.409C0.373,-0.421 0.351,-0.428 0.322,-0.428C0.31,-0.428 0.298,-0.426 0.285,-0.422C0.271,-0.419 0.259,-0.412 0.247,-0.401C0.235,-0.391 0.226,-0.375 0.218,-0.355C0.211,-0.335 0.207,-0.308 0.207,-0.274L0.129,-0.311C0.129,-0.354 0.138,-0.394 0.155,-0.431C0.172,-0.468 0.198,-0.498 0.233,-0.521C0.268,-0.545 0.312,-0.556 0.365,-0.556C0.407,-0.556 0.442,-0.549 0.469,-0.534C0.495,-0.52 0.516,-0.502 0.531,-0.48C0.546,-0.458 0.556,-0.435 0.562,-0.411C0.569,-0.387 0.573,-0.366 0.574,-0.346C0.575,-0.326 0.576,-0.312 0.576,-0.303L0.576,-0L0.438,-0ZM0.069,-0L0.069,-0.54L0.19,-0.54L0.19,-0.361L0.207,-0.361L0.207,-0L0.069,-0Z" style="fill:rgb(232,234,240);fill-rule:nonzero;"/>
            </g>
            <g transform="matrix(213.020054,0,0,213.020054,511.210067,849.79548)">
                <path d="M0.394,-0C0.357,0.007 0.32,0.01 0.284,0.009C0.248,0.008 0.216,0.002 0.188,-0.01C0.16,-0.022 0.139,-0.041 0.124,-0.067C0.111,-0.092 0.104,-0.117 0.103,-0.142C0.102,-0.168 0.102,-0.197 0.102,-0.229L0.102,-0.69L0.238,-0.69L0.238,-0.237C0.238,-0.216 0.238,-0.197 0.239,-0.18C0.239,-0.163 0.243,-0.15 0.249,-0.14C0.261,-0.121 0.28,-0.111 0.306,-0.109C0.333,-0.107 0.362,-0.109 0.394,-0.113L0.394,-0ZM0.01,-0.435L0.01,-0.54L0.394,-0.54L0.394,-0.435L0.01,-0.435Z" style="fill:rgb(232,234,240);fill-rule:nonzero;"/>
            </g>
            <g transform="matrix(213.020054,0,0,213.020054,597.270169,849.79548)">
                <path d="M0.07,-0L0.07,-0.54L0.19,-0.54L0.19,-0.408L0.177,-0.425C0.184,-0.444 0.193,-0.461 0.205,-0.476C0.217,-0.491 0.231,-0.504 0.248,-0.514C0.261,-0.522 0.275,-0.528 0.29,-0.533C0.306,-0.537 0.322,-0.54 0.338,-0.541C0.354,-0.542 0.371,-0.542 0.387,-0.54L0.387,-0.413C0.372,-0.418 0.355,-0.419 0.335,-0.418C0.315,-0.416 0.297,-0.412 0.281,-0.404C0.265,-0.397 0.252,-0.387 0.24,-0.375C0.23,-0.363 0.221,-0.348 0.215,-0.332C0.21,-0.315 0.207,-0.297 0.207,-0.276L0.207,-0L0.07,-0Z" style="fill:rgb(232,234,240);fill-rule:nonzero;"/>
            </g>
            <g transform="matrix(213.020054,0,0,213.020054,672.253228,849.79548)">
                <path d="M0.139,0.24L0.243,-0.046L0.245,0.038L0.01,-0.54L0.151,-0.54L0.309,-0.131L0.277,-0.131L0.434,-0.54L0.57,-0.54L0.265,0.24L0.139,0.24Z" style="fill:rgb(232,234,240);fill-rule:nonzero;"/>
            </g>
            <g transform="matrix(213.020054,0,0,213.020054,768.112252,849.79548)">
                <path d="M0.02,-0L0.24,-0.72L0.443,-0.72L0.663,-0L0.523,-0L0.327,-0.635L0.353,-0.635L0.16,-0L0.02,-0ZM0.152,-0.15L0.152,-0.277L0.532,-0.277L0.532,-0.15L0.152,-0.15Z" style="fill:rgb(232,234,240);fill-rule:nonzero;"/>
            </g>
            <g transform="matrix(213.020054,0,0,213.020054,905.084147,849.79548)">
                <rect x="0.08" y="-0.72" width="0.136" height="0.72" style="fill:rgb(232,234,240);fill-rule:nonzero;"/>
            </g>
            <g transform="matrix(213.020054,0,0,213.020054,968.138083,849.79548)">
            </g>
        </g>
    </g>
    <defs>
        <linearGradient id="_Linear1" x1="0" y1="0" x2="1" y2="0" gradientUnits="userSpaceOnUse" gradientTransform="matrix(-78.568352,-250.58888,87.71924,-224.447399,515.938789,810.104978)"><stop offset="0" style="stop-color:white;stop-opacity:0"/><stop offset="0.65" style="stop-color:rgb(227,237,254);stop-opacity:0.14"/><stop offset="0.84" style="stop-color:rgb(151,188,250);stop-opacity:0.53"/><stop offset="1" style="stop-color:rgb(59,130,246);stop-opacity:1"/></linearGradient>
    </defs>
</svg>
